<svg id="logo_1_idx" data-name="logo 1 idx" xmlns="http://www.w3.org/2000/svg" xmlns:xlink="http://www.w3.org/1999/xlink" width="57" height="57" viewBox="0 0 57 57">
  <defs>
    <clipPath id="clip-path">
      <rect id="Rectangle_1274" data-name="Rectangle 1274" width="57" height="57" fill="none"/>
    </clipPath>
  </defs>
  <g id="Group_40" data-name="Group 40" clip-path="url(#clip-path)">
    <path id="Path_8461" data-name="Path 8461" d="M28.331,0A28.333,28.333,0,1,1,0,28.306,28.346,28.346,0,0,1,28.331,0M44.141,36.789c-.1,1.479-.212,2.985-.292,4.493-.06,1.136.516,1.926,1.4,1.987s1.592-.633,1.638-1.787c.108-2.714.3-5.437.191-8.146A30.432,30.432,0,0,0,43.3,18.916C35.951,6.329,20.529,8.631,14.278,16.445c-3.513,4.39-4.275,9.362-3.508,14.732.475,3.322,1.021,6.635,1.41,9.966.156,1.338-.115,2.722,0,4.069a2.594,2.594,0,0,0,.945,1.618,1.471,1.471,0,0,0,1.416-.2,2.659,2.659,0,0,0,.63-1.6,42.925,42.925,0,0,0-.948-11.7c-.658-3.26-1.089-6.578-.181-9.876,2.071-7.53,9.381-11.172,16.45-10.192,5.352.742,8.762,4.113,11.008,8.794,2.229,4.645,2.589,9.649,2.641,14.728m-7.572,1.5.054-.01c-.217-2.29-.373-4.587-.667-6.866A16.555,16.555,0,0,0,33.6,23.928a6.626,6.626,0,0,0-6.617-3.048c-2.53.286-4.508,1.522-5.253,4.006a9.981,9.981,0,0,0-.312,4.447A68.5,68.5,0,0,1,22.4,49.046c-.143,1.267.423,2.018,1.38,2.065.892.044,1.48-.6,1.629-1.786a63.61,63.61,0,0,0-.8-19.264,15.892,15.892,0,0,1-.323-2.689,3.092,3.092,0,0,1,2.139-3.249,3.687,3.687,0,0,1,4.3,1.094,11.326,11.326,0,0,1,2.13,6.23c.316,2.847.459,5.713.674,8.571.085,1.136.613,1.726,1.545,1.719s1.46-.617,1.485-1.75c.013-.566,0-1.132,0-1.7m5.59,1.925c-.038-5.145-.287-10.094-1.875-14.832C38.876,21.176,36.4,17.776,32,16.252a12.641,12.641,0,0,0-9.686.654,1.411,1.411,0,0,0-.871,1.936,1.449,1.449,0,0,0,1.96.842c.289-.08.56-.224.846-.319,2.92-.969,5.8-1.07,8.485.658,2.911,1.871,4.357,4.76,5.116,8a50.172,50.172,0,0,1,.768,17.78c-.162,1.3.316,2.136,1.288,2.247.939.107,1.6-.531,1.731-1.808.213-2.064.364-4.134.527-6.022m1.42-28.574a7.35,7.35,0,0,0-1.009-1.416A22.981,22.981,0,0,0,15.253,8.789c-1.127.749-1.469,1.614-.959,2.421.539.854,1.461.892,2.669.111.095-.061.188-.127.285-.184,6.463-3.814,13.086-4.278,19.839-.843,1.334.678,2.5,1.69,3.8,2.428a2.294,2.294,0,0,0,1.663.16c.393-.129.631-.735,1.025-1.241M18.71,19.969c-.255.22-.911.528-1.138,1.03a11.528,11.528,0,0,0-1.417,4.108,50.152,50.152,0,0,0,.559,7.85,57.8,57.8,0,0,1,.544,14.423,3.119,3.119,0,0,0,0,1.012,1.417,1.417,0,0,0,1.479,1.282,1.355,1.355,0,0,0,1.43-1.186,13.477,13.477,0,0,0,.207-1.341,57.415,57.415,0,0,0-.6-14.2c-.548-3.706-1.589-7.416.617-11.006.541-.88-.325-1.977-1.687-1.972M13.525,13.7a5.575,5.575,0,0,0-1.138-1.218c-.794-.456-1.434.018-1.952.639A23.071,23.071,0,0,0,5.023,26.4a30.376,30.376,0,0,0,1.613,11.58,1.448,1.448,0,0,0,1.88,1.167A1.442,1.442,0,0,0,9.551,37.2c-.106-.439-.211-.878-.337-1.312C7.021,28.329,7.7,21.272,12.838,14.981a8.57,8.57,0,0,0,.687-1.283M31.24,42.235l-.214-.005a40.681,40.681,0,0,0-.037-5.088c-.408-3.206-.972-6.4-1.6-9.568a1.535,1.535,0,0,0-2.076-1.336c-.871.325-1.117,1.1-.816,2.268a42.052,42.052,0,0,1,.954,4.181A69.921,69.921,0,0,1,27.8,49.4c-.105,1.2.405,1.91,1.325,2.008.949.1,1.613-.586,1.692-1.828.156-2.446.281-4.895.419-7.342M51.427,27.791l.08-.01c-.168-1.308-.26-2.63-.517-3.92a20.89,20.89,0,0,0-4.436-10.012,1.536,1.536,0,1,0-2.3,1.957,16.306,16.306,0,0,1,3.433,7.418c.387,1.946.463,3.955.673,5.936.1.94.537,1.621,1.54,1.62s1.444-.7,1.525-1.631c.039-.449.007-.9.007-1.357M36.6,45.98l-.054-.006c0-.526.027-1.054-.006-1.577A1.36,1.36,0,0,0,35.076,43a1.385,1.385,0,0,0-1.506,1.363c-.13,1.382-.217,2.767-.3,4.152a1.4,1.4,0,0,0,1.3,1.664,1.438,1.438,0,0,0,1.691-1.408c.139-.926.226-1.861.335-2.792" transform="translate(0.001 -0.001)" fill="#fff"/>
  </g>
</svg>
