<svg xmlns="http://www.w3.org/2000/svg" xmlns:xlink="http://www.w3.org/1999/xlink" width="39" height="38.907" viewBox="0 0 39 38.907">
  <defs>
    <clipPath id="clip-path">
      <rect id="Rectangle_1275" data-name="Rectangle 1275" width="39" height="38.907" fill="none"/>
    </clipPath>
  </defs>
  <g id="logo_2_idx" data-name="logo 2 idx" clip-path="url(#clip-path)">
    <path id="Path_8462" data-name="Path 8462" d="M52.649,44.74C52.6,40.485,52.3,36.293,50.436,32.4c-1.882-3.921-4.738-6.745-9.222-7.367-5.921-.821-12.045,2.23-13.78,8.538a17.653,17.653,0,0,0,.152,8.274,35.952,35.952,0,0,1,.794,9.8,2.227,2.227,0,0,1-.527,1.337,1.232,1.232,0,0,1-1.186.169,2.174,2.174,0,0,1-.792-1.356c-.1-1.128.13-2.288,0-3.408-.327-2.791-.784-5.566-1.181-8.349-.643-4.5,0-8.663,2.939-12.341,5.237-6.546,18.156-8.474,24.314,2.07a25.494,25.494,0,0,1,3.161,12.08c.093,2.269-.069,4.55-.16,6.824-.039.966-.629,1.548-1.372,1.5S52.354,49.456,52.4,48.5c.067-1.263.163-2.525.245-3.764" transform="translate(-19.82 -18.085)" fill="#fff"/>
    <path id="Path_8463" data-name="Path 8463" d="M84.893,84.577c0,.474.009.948,0,1.422-.021.949-.46,1.46-1.244,1.466s-1.223-.489-1.294-1.44c-.18-2.394-.3-4.8-.565-7.18A9.486,9.486,0,0,0,80,73.626a3.089,3.089,0,0,0-3.6-.917,2.59,2.59,0,0,0-1.792,2.722,13.292,13.292,0,0,0,.27,2.252,53.283,53.283,0,0,1,.667,16.138c-.125.993-.617,1.534-1.364,1.5-.8-.04-1.276-.669-1.156-1.73A57.389,57.389,0,0,0,72.2,77.074a8.358,8.358,0,0,1,.261-3.725,4.75,4.75,0,0,1,4.4-3.356,5.551,5.551,0,0,1,5.544,2.554,13.87,13.87,0,0,1,1.972,6.271c.247,1.91.377,3.834.559,5.752l-.045.008" transform="translate(-58.407 -56.664)" fill="#fff"/>
    <path id="Path_8464" data-name="Path 8464" d="M89.632,67.429c-.136,1.582-.263,3.316-.441,5.045-.11,1.07-.664,1.6-1.45,1.515-.815-.093-1.215-.792-1.079-1.882a42.031,42.031,0,0,0-.643-14.895,10.276,10.276,0,0,0-4.286-6.7,7.9,7.9,0,0,0-7.108-.551c-.239.08-.466.2-.709.267a1.214,1.214,0,0,1-1.642-.7A1.181,1.181,0,0,1,73,47.9a10.589,10.589,0,0,1,8.114-.548c3.688,1.277,5.764,4.125,6.944,7.649,1.33,3.969,1.538,8.115,1.57,12.425" transform="translate(-58.463 -37.903)" fill="#fff"/>
    <path id="Path_8465" data-name="Path 8465" d="M64.922,5.588c-.33.424-.529.932-.858,1.04a1.92,1.92,0,0,1-1.393-.134c-1.1-.618-2.07-1.466-3.188-2.034-5.657-2.877-11.205-2.489-16.62.707-.082.048-.159.1-.239.154-1.011.654-1.784.622-2.235-.093-.427-.677-.14-1.4.8-2.028A19.252,19.252,0,0,1,64.076,4.4a6.151,6.151,0,0,1,.846,1.186" transform="translate(-32.563 0)" fill="#fff"/>
    <path id="Path_8466" data-name="Path 8466" d="M51.527,66.172c1.14,0,1.866.915,1.413,1.652-1.848,3.007-.976,6.115-.517,9.22a48.079,48.079,0,0,1,.5,11.9,11.226,11.226,0,0,1-.173,1.123,1.135,1.135,0,0,1-1.2.994,1.187,1.187,0,0,1-1.24-1.074,2.608,2.608,0,0,1,0-.848,48.437,48.437,0,0,0-.456-12.082,41.99,41.99,0,0,1-.469-6.576,9.662,9.662,0,0,1,1.187-3.441c.19-.42.739-.679.953-.863" transform="translate(-40.002 -53.607)" fill="#fff"/>
    <path id="Path_8467" data-name="Path 8467" d="M7.182,33.508a7.194,7.194,0,0,1-.576,1.075C2.3,39.852,1.733,45.764,3.57,52.1c.105.363.193.731.282,1.1a1.208,1.208,0,0,1-.866,1.634,1.213,1.213,0,0,1-1.575-.978,25.447,25.447,0,0,1-1.352-9.7A19.328,19.328,0,0,1,4.593,33.022c.434-.52.97-.917,1.635-.535a4.675,4.675,0,0,1,.953,1.02" transform="translate(0 -26.195)" fill="#fff"/>
    <path id="Path_8468" data-name="Path 8468" d="M177.465,48.143c0,.379.027.761-.006,1.137-.068.779-.432,1.366-1.277,1.366s-1.207-.57-1.29-1.357c-.176-1.66-.239-3.342-.564-4.972a13.656,13.656,0,0,0-2.876-6.214,1.287,1.287,0,1,1,1.93-1.64,17.5,17.5,0,0,1,3.716,8.387c.216,1.081.293,2.189.434,3.284l-.067.008" transform="translate(-138.533 -29.026)" fill="#fff"/>
    <path id="Path_8469" data-name="Path 8469" d="M127.7,170.28c-.092.78-.164,1.563-.281,2.339A1.2,1.2,0,0,1,126,173.8a1.171,1.171,0,0,1-1.089-1.394c.07-1.161.144-2.321.252-3.479a1.16,1.16,0,0,1,1.261-1.142,1.139,1.139,0,0,1,1.222,1.17c.028.439.005.88.005,1.321l.045,0" transform="translate(-101.188 -135.924)" fill="#fff"/>
    <path id="Path_8470" data-name="Path 8470" d="M98.574,106.854c-.116,2.05-.221,4.1-.351,6.15-.066,1.04-.623,1.616-1.418,1.531-.77-.082-1.2-.673-1.11-1.682a58.576,58.576,0,0,0-.3-14,35.212,35.212,0,0,0-.8-3.5c-.253-.974-.047-1.627.683-1.9a1.286,1.286,0,0,1,1.74,1.119c.529,2.657,1,5.33,1.343,8.015a34.082,34.082,0,0,1,.031,4.263l.179,0" transform="translate(-76.552 -75.636)" fill="#fff"/>
  </g>
</svg>
